HIERARCHY
ROOT hip
{
	OFFSET 0.000000 0.000000 0.000000
	CHANNELS 6 Xposition Yposition Zposition Zrotation Yrotation Xrotation 
	JOINT lhipjoint
	{
		OFFSET 0.000000 0.000000 0.000000
		CHANNELS 3 Zrotation Yrotation Xrotation
		JOINT lfemur
		{
			OFFSET 1.363060 -1.794630 0.839290
			CHANNELS 3 Zrotation Yrotation Xrotation
			JOINT ltibia
			{
				OFFSET 2.448110 -6.726130 0.000000
				CHANNELS 3 Zrotation Yrotation Xrotation
				JOINT lfoot
				{
					OFFSET 2.562200 -7.039590 0.000000
					CHANNELS 3 Zrotation Yrotation Xrotation
					JOINT ltoes
					{
						OFFSET 0.157640 -0.433110 2.322550
						CHANNELS 3 Zrotation Yrotation Xrotation
						End Site
						{
							OFFSET 0.000000 0.000000 0.000000
						}
					}
				}
			}
		}
	}
	JOINT rhipjoint
	{
		OFFSET 0.000000 0.000000 0.000000
		CHANNELS 3 Zrotation Yrotation Xrotation
		JOINT rfemur
		{
			OFFSET -1.305520 -1.794630 0.839290
			CHANNELS 3 Zrotation Yrotation Xrotation
			JOINT rtibia
			{
				OFFSET -2.542530 -6.985550 0.000000
				CHANNELS 3 Zrotation Yrotation Xrotation
				JOINT rfoot
				{
					OFFSET -2.568260 -7.056230 0.000000
					CHANNELS 3 Zrotation Yrotation Xrotation
					JOINT rtoes
					{
						OFFSET -0.164730 -0.452590 2.363150
						CHANNELS 3 Zrotation Yrotation Xrotation
						End Site
						{
							OFFSET 0.000000 0.000000 0.000000
						}
					}
				}
			}
		}
	}
	JOINT lowerback
	{
		OFFSET 0.000000 0.000000 0.000000
		CHANNELS 3 Zrotation Yrotation Xrotation
		JOINT upperback
		{
			OFFSET 0.028270 2.035590 -0.193380
			CHANNELS 3 Zrotation Yrotation Xrotation
			JOINT thorax
			{
				OFFSET 0.056720 2.048850 -0.042750
				CHANNELS 3 Zrotation Yrotation Xrotation
				JOINT lowerneck
				{
					OFFSET 0.000000 0.000000 0.000000
					CHANNELS 3 Zrotation Yrotation Xrotation
					JOINT upperneck
					{
						OFFSET -0.054170 1.746240 0.172020
						CHANNELS 3 Zrotation Yrotation Xrotation
						JOINT head
						{
							OFFSET 0.104070 1.761360 -0.123970
							CHANNELS 3 Zrotation Yrotation Xrotation
							End Site
							{
								OFFSET 0.000000 0.000000 0.000000
							}
						}
					}
				}
				JOINT lclavicle
				{
					OFFSET 0.000000 0.000000 0.000000
					CHANNELS 3 Zrotation Yrotation Xrotation
					JOINT lhumerus
					{
						OFFSET 3.362410 1.200890 -0.311210
						CHANNELS 3 Zrotation Yrotation Xrotation
						JOINT lradius
						{
							OFFSET 4.983000 -0.000000 -0.000000
							CHANNELS 3 Zrotation Yrotation Xrotation
							JOINT lwrist
							{
								OFFSET 3.483560 -0.000000 -0.000000
								CHANNELS 3 Zrotation Yrotation Xrotation
								JOINT lhand
								{
									OFFSET 0.000000 0.000000 0.000000
									CHANNELS 3 Zrotation Yrotation Xrotation
									JOINT lfingers
									{
										OFFSET 0.715260 -0.000000 -0.000000
										CHANNELS 3 Zrotation Yrotation Xrotation
										End Site
										{
											OFFSET 0.000000 0.000000 0.000000
										}
									}
								}
								JOINT lthumb
								{
									OFFSET 0.000000 0.000000 0.000000
									CHANNELS 3 Zrotation Yrotation Xrotation
									End Site
									{
										OFFSET 0.000000 0.000000 0.000000
									}
								}
							}
						}
					}
				}
				JOINT rclavicle
				{
					OFFSET 0.000000 0.000000 0.000000
					CHANNELS 3 Zrotation Yrotation Xrotation
					JOINT rhumerus
					{
						OFFSET -3.136600 1.374050 -0.404650
						CHANNELS 3 Zrotation Yrotation Xrotation
						JOINT rradius
						{
							OFFSET -5.241900 -0.000000 -0.000000
							CHANNELS 3 Zrotation Yrotation Xrotation
							JOINT rwrist
							{
								OFFSET -3.444170 -0.000000 -0.000000
								CHANNELS 3 Zrotation Yrotation Xrotation
								JOINT rhand
								{
									OFFSET 0.000000 0.000000 0.000000
									CHANNELS 3 Zrotation Yrotation Xrotation
									JOINT rfingers
									{
										OFFSET -0.622530 -0.000000 -0.000000
										CHANNELS 3 Zrotation Yrotation Xrotation
										End Site
										{
											OFFSET 0.000000 0.000000 0.000000
										}
									}
								}
								JOINT rthumb
								{
									OFFSET 0.000000 0.000000 0.000000
									CHANNELS 3 Zrotation Yrotation Xrotation
									End Site
									{
										OFFSET 0.000000 0.000000 0.000000
									}
								}
							}
						}
					}
				}
			}
		}
	}
}
MOTION
Frames: 11
Frame Time: 0.008333
1.184402 17.108352 1.612944 -175.531611 -20.731592 -178.262811 -4.297881 -3.347230 -0.993929 -10.313208 -2.571175 -11.634639 4.231349 11.980109 33.847707 0.761859 -5.681829 -15.132022 0.242600 -3.169900 -8.752200 2.421142 4.214392 -3.049083 22.179256 -14.692224 -9.802600 -3.721537 -11.470071 28.819352 -1.201190 8.049065 -17.478627 -1.041900 6.491500 -18.217500 -1.142449 1.894989 -4.235538 0.532483 2.882144 -3.869890 -3.918820 0.851869 11.973823 -5.319661 -6.471764 -11.482324 9.524994 -12.783997 29.504093 1.460200 -5.784600 8.560500 -4.414501 -3.815903 3.584371 -75.561015 -17.421731 7.794845 32.135770 -42.128114 -14.246399 -0.268426 1.960911 -0.076608 38.842492 -17.916763 -15.804600 -7.125000 0.000000 0.000000 6.657400 4.577000 -6.147400 5.431579 2.760190 3.196731 79.834452 -4.601808 10.240275 -4.268719 24.890787 -1.323686 0.427815 -1.065983 34.919829 -1.065584 5.992514 -0.233800 7.125000 0.000000 0.000000 18.008800 -23.386400 9.860600 
1.175892 17.116056 1.627725 -175.367434 -21.192466 -178.157803 -4.285473 -3.337382 -1.017550 -10.198215 -2.909414 -11.623766 4.175142 11.875891 33.510373 0.748621 -5.878050 -14.953826 0.184100 -2.763600 -7.621400 2.420017 4.183585 -3.035500 22.249184 -15.035857 -10.292409 -3.747720 -11.502998 28.985700 -1.183374 8.223595 -17.210443 -1.161800 6.842700 -19.250200 -1.199408 1.951762 -4.015009 0.515909 2.943902 -3.829255 -4.052230 0.888394 11.998689 -5.372116 -6.620215 -11.402975 9.764513 -13.048851 29.326441 1.540000 -5.904300 8.518400 -4.380403 -3.843158 3.624695 -75.359270 -18.252886 8.999913 32.547432 -42.403818 -14.433213 -0.229537 1.986864 0.349611 38.005511 -17.825385 -15.293300 -7.125000 0.000000 0.000000 6.145700 4.915400 -5.629700 5.262732 2.733580 3.154176 80.414193 -4.530786 6.913670 -2.470569 22.807056 -1.086316 0.397446 -0.991108 37.857494 -1.255374 5.812600 -0.241000 7.125000 0.000000 0.000000 17.937500 -23.643900 9.704800 
1.167382 17.125283 1.643042 -175.204810 -21.614068 -178.039702 -4.274438 -3.330222 -1.038168 -10.068685 -3.082063 -11.676690 4.112886 11.765372 33.148134 0.729908 -6.150223 -14.706361 0.149700 -2.493400 -6.871400 2.417302 4.151682 -3.021356 22.319219 -15.340195 -10.783657 -3.777456 -11.535672 29.158766 -1.167243 8.424329 -16.956570 -1.319500 7.275300 -20.533600 -1.239777 1.997283 -3.801240 0.509044 2.988885 -3.790244 -4.150927 0.916681 12.023635 -5.470721 -6.742634 -11.347383 10.033144 -13.274567 29.129701 1.641100 -6.005700 8.481600 -4.352143 -3.869408 3.662030 -75.097262 -19.015196 10.206584 32.979097 -42.691671 -14.631611 -0.185661 2.010101 1.013881 37.188444 -17.676273 -14.763900 -7.125000 0.000000 0.000000 5.656800 5.311300 -5.134600 5.104716 2.701219 3.110282 80.941707 -4.384690 2.977918 -0.794193 20.640001 -0.887514 0.385944 -0.897545 41.438154 -1.197584 5.762273 -0.224100 7.125000 0.000000 0.000000 18.028700 -23.806900 9.687500 
1.158693 17.133434 1.659435 -175.047515 -22.016631 -177.913535 -4.264517 -3.324083 -1.056520 -9.935479 -3.202085 -11.752815 4.049057 11.650852 32.774792 0.712037 -6.493834 -14.470761 0.115100 -2.187000 -6.022900 2.413760 4.120032 -3.006057 22.384450 -15.685430 -11.296803 -3.802722 -11.560721 29.307964 -1.145196 8.695357 -16.614472 -1.447700 7.606000 -21.523500 -1.251497 2.037369 -3.581312 0.505902 3.023281 -3.756915 -4.234731 0.942678 12.024326 -5.608696 -6.852411 -11.298425 10.320891 -13.483674 28.918050 1.758300 -6.101400 8.450300 -4.336335 -3.905910 3.693351 -74.770769 -19.628074 11.475064 33.477085 -43.029672 -14.872418 -0.140318 2.029425 1.766122 36.457026 -17.542040 -14.299500 -7.125000 0.000000 0.000000 5.216500 5.660300 -4.696600 4.973379 2.676673 3.066412 81.375429 -4.314230 -0.974013 0.577142 18.636481 -0.738618 0.393218 -0.814068 45.036040 -0.933806 5.709985 -0.187200 7.125000 0.000000 0.000000 18.260400 -23.970300 9.752100 
1.150721 17.143288 1.675918 -174.921103 -22.376811 -177.765760 -4.252455 -3.317190 -1.071533 -9.831084 -3.249476 -11.874847 3.988119 11.535874 32.410323 0.690540 -6.866413 -14.196184 0.089300 -1.927400 -5.305000 2.413411 4.088919 -2.990315 22.409697 -15.949832 -11.772406 -3.826159 -11.577726 29.429644 -1.120262 9.050107 -16.227868 -1.523000 7.792500 -22.085700 -1.251065 2.096674 -3.358773 0.490254 3.081764 -3.730444 -4.371880 0.983065 11.992131 -5.688506 -6.952230 -11.244100 10.629115 -13.697116 28.703608 1.869500 -6.193900 8.419200 -4.337673 -3.954639 3.716594 -74.250147 -20.084107 12.876283 34.029951 -43.408482 -15.148782 -0.097964 2.042280 2.400581 35.831999 -17.451708 -13.922800 -7.125000 0.000000 0.000000 4.831900 5.928300 -4.322800 4.864760 2.671725 3.024601 81.785417 -4.366305 -4.576994 1.626424 16.929040 -0.632083 0.415311 -0.752185 48.294746 -0.506470 5.666330 -0.137300 7.125000 0.000000 0.000000 18.596100 -24.111100 9.886700 
1.143734 17.154754 1.692669 -174.779411 -22.717487 -177.605056 -4.241803 -3.307695 -1.083661 -9.690157 -3.254201 -12.058236 3.933634 11.427844 32.078957 0.665247 -7.255386 -13.889206 0.065700 -1.654200 -4.550800 2.411906 4.050428 -2.972611 22.472994 -16.089842 -12.202227 -3.849418 -11.579415 29.509793 -1.093711 9.390926 -15.830506 -1.505800 7.750300 -21.958200 -1.207282 2.148323 -3.164094 0.476642 3.126026 -3.709067 -4.526965 1.020173 11.954578 -5.739485 -7.038537 -11.176486 10.940761 -13.891498 28.459950 1.978900 -6.276600 8.372000 -4.351712 -4.007251 3.733229 -73.561084 -20.410445 14.355956 34.590278 -43.795433 -15.434887 -0.060386 2.049042 2.900149 35.356651 -17.403548 -13.650400 -7.125000 0.000000 0.000000 4.531800 6.107900 -4.036900 4.777602 2.673469 2.987124 82.133311 -4.449312 -7.902478 2.466467 15.403345 -0.550642 0.446360 -0.705684 51.254058 0.038436 5.636649 -0.079100 7.125000 0.000000 0.000000 19.006400 -24.227500 10.075400 
1.137016 17.168280 1.709778 -174.678349 -23.037908 -177.419149 -4.233521 -3.294331 -1.092420 -9.588246 -3.274055 -12.277613 3.890804 11.330917 31.799415 0.639680 -7.616976 -13.585182 0.053600 -1.493600 -4.108000 2.409511 4.016721 -2.955767 22.501334 -16.347258 -12.676293 -3.861437 -11.570652 29.549245 -1.060361 9.778680 -15.365974 -1.496400 7.727200 -21.888600 -1.188205 2.190288 -2.969335 0.467892 3.162421 -3.692367 -4.621375 1.050593 11.901812 -5.877484 -7.118693 -11.149629 11.271893 -14.075058 28.226319 2.111300 -6.357900 8.353100 -4.376536 -4.069852 3.743054 -72.833772 -20.629208 15.876565 35.192014 -44.211430 -15.755055 -0.032049 2.053758 3.116505 35.046862 -17.424138 -13.505900 -7.125000 0.000000 0.000000 4.321800 6.161300 -3.844200 4.715584 2.678875 2.951961 82.380516 -4.602727 -10.828903 3.058279 14.148653 -0.494393 0.483088 -0.672186 53.796784 0.607078 5.676966 -0.022000 7.125000 0.000000 0.000000 19.417200 -24.266600 10.300700 
1.129939 17.182702 1.726977 -174.572700 -23.327136 -177.216072 -4.226566 -3.278902 -1.096106 -9.476765 -3.230611 -12.577910 3.858935 11.245106 31.575712 0.612121 -7.997153 -13.266273 0.047300 -1.403700 -3.860300 2.407565 3.979585 -2.934570 22.553231 -16.712995 -13.211332 -3.863842 -11.549181 29.547169 -1.022921 10.162783 -14.871180 -1.511800 7.765100 -22.003000 -1.115628 2.243767 -2.775674 0.453739 3.208976 -3.689008 -4.766079 1.092249 11.786637 -5.986674 -7.186582 -11.074016 11.594007 -14.250444 27.996808 2.239100 -6.437900 8.326400 -4.408326 -4.145515 3.746234 -71.993266 -20.739882 17.412365 35.730863 -44.583950 -16.037118 -0.002968 2.053692 3.171103 34.790075 -17.582539 -13.468600 -7.125000 0.000000 0.000000 4.117600 6.045900 -3.670700 4.658322 2.702846 2.918723 82.641951 -4.827085 -13.546793 3.489042 13.085025 -0.454960 0.517985 -0.652679 55.985553 1.130354 5.706837 0.029400 7.125000 0.000000 0.000000 19.790900 -24.300800 10.507100 
1.124027 17.196587 1.743907 -174.466723 -23.599690 -177.013779 -4.219814 -3.263421 -1.098150 -9.356362 -3.168178 -12.905304 3.835215 11.170334 31.396481 0.585765 -8.377837 -12.976829 0.044900 -1.368100 -3.762200 2.407718 3.941496 -2.912121 22.618359 -17.106336 -13.751927 -3.862306 -11.524262 29.529394 -0.984785 10.579766 -14.378409 -1.535000 7.821700 -22.173900 -1.008185 2.298819 -2.569738 0.432707 3.252597 -3.690333 -4.967559 1.137509 11.650451 -6.099644 -7.242357 -11.023232 11.963948 -14.428822 27.766295 2.384400 -6.517100 8.317500 -4.452779 -4.233175 3.742275 -71.018157 -20.730472 18.957413 36.298534 -44.970558 -16.344238 0.012474 2.048917 2.988642 34.670336 -17.684478 -13.461900 -7.125000 0.000000 0.000000 4.012000 5.965100 -3.582400 4.604348 2.735764 2.888814 82.933224 -5.110770 -15.629573 3.752944 12.354944 -0.432077 0.551108 -0.648784 57.604011 1.596334 5.739849 0.073700 7.125000 0.000000 0.000000 20.113700 -24.315200 10.693700 
1.117667 17.209665 1.761734 -174.385386 -23.847647 -176.779740 -4.215707 -3.241400 -1.097856 -9.262880 -3.153836 -13.264338 3.820175 11.103279 31.255068 0.560795 -8.724901 -12.708860 0.043300 -1.342900 -3.692900 2.406448 3.898655 -2.887517 22.680078 -17.453697 -14.305166 -3.861760 -11.492559 29.498143 -0.944346 10.980797 -13.886180 -1.535200 7.822200 -22.175400 -0.914670 2.343715 -2.390366 0.420028 3.287242 -3.694436 -5.101135 1.176129 11.517845 -6.288668 -7.296974 -10.986040 12.339804 -14.598806 27.535586 2.547300 -6.597500 8.320500 -4.505150 -4.327087 3.733705 -70.005350 -20.624160 20.508543 36.892768 -45.372730 -16.676957 0.014003 2.042847 2.527971 34.684920 -17.755509 -13.503300 -7.125000 0.000000 0.000000 3.997900 5.885200 -3.575800 4.573434 2.768946 2.863307 83.140949 -5.458815 -17.125793 3.864233 11.911780 -0.422398 0.573813 -0.650771 58.633094 1.890076 5.749371 0.101000 7.125000 0.000000 0.000000 20.316200 -24.334200 10.806200 
1.112113 17.223998 1.776514 -174.344343 -24.072187 -176.448636 -4.211943 -3.205841 -1.092963 -9.199779 -3.150506 -13.724888 3.812487 11.037720 31.139386 0.535637 -9.070286 -12.443949 0.043200 -1.341500 -3.688900 2.406384 3.839744 -2.853286 22.751471 -17.669765 -14.920947 -3.874365 -11.456589 29.486685 -0.911657 11.287818 -13.529983 -1.566100 7.896800 -22.401000 -0.879262 2.380759 -2.324569 0.408220 3.323820 -3.707288 -5.183110 1.210859 11.403676 -6.494084 -7.364889 -10.972292 12.691158 -14.772117 27.305467 2.701800 -6.680700 8.328100 -4.563033 -4.424300 3.718109 -68.959071 -20.398746 22.016355 37.526641 -45.794942 -17.042359 0.004999 2.034175 1.943372 34.722735 -17.719554 -13.490300 -7.125000 0.000000 0.000000 4.020700 5.926400 -3.593100 4.561486 2.808525 2.841036 83.333528 -5.903139 -17.869688 3.822761 11.833500 -0.426556 0.592080 -0.669883 58.927529 2.126460 5.665047 0.119600 7.125000 0.000000 0.000000 20.479700 -24.420000 10.861100 
